<svg id="Layer_1" data-name="Layer 1"
    xmlns="http://www.w3.org/2000/svg" viewBox="200 485 550 290" width="230" height="68" fill="none">
    <defs>
        <style>.cls-1{fill:#cb2026;}.cls-2{fill:#231f20;}.cls-3{fill:#cb2026;}</style>
    </defs>    
    <path class="cls-1" d="M1357.21,611.24a57.73,57.73,0,0,0,11.52-34.66c0-33.22-28.42-60.25-63.36-60.25s-63.35,27-63.35,60.25,28.42,60.25,63.35,60.25a66.13,66.13,0,0,0,29-6.67l34.3,12a4.21,4.21,0,0,0-.16-.61Zm-50.39.84a34.57,34.57,0,1,1,34.57-34.57A34.58,34.58,0,0,1,1306.82,612.08Z" transform="translate(-588.24 9.77)"/>
    <path class="cls-1" d="M860,488a16.32,16.32,0,0,0-16.4,16.2,16.18,16.18,0,0,0,32.36.11A15.9,15.9,0,0,0,860,488Z" transform="translate(-588.24 9.77)"/>
    <polygon class="cls-1" points="258.77 639.62 284.22 639.62 284.22 538.26 258.77 542.41 258.77 639.62"/>
    <path class="cls-1" d="M791.57,526.68c-12.16,0-23.09,3.44-34.32,9l-2.87,1.47,6.84,15.26,3.86-1.83c7.95-3.55,16.42-5.94,24-5.62,9.22.37,13,4.6,13,13.44v5.18H787c-24.23,0-39.32,12.85-39.74,32.79,0,19,15.8,35.29,37.78,35.29,17.74,0,32.76-5.75,42.89-15.9v-54.1C828,535.34,809.14,526.68,791.57,526.68Zm10.51,84.05c-2.5,1.76-7.63,3.28-13.21,3.28-10.23,0-14.85-7.85-14.67-17,.18-7.56,4.89-16.16,17.67-16.16h10.21Z" transform="translate(-588.24 9.77)"/>
    <path class="cls-1" d="M1059.78,613.83c-7,0-11.69-2.29-14.78-5.62-4.57-5-6.61-15.12-6-25.93h54.87v-2.53c-.48-35.93-12.72-52.28-39.54-52.28-29.92,0-41.58,27.53-41.81,53.39-.18,16.35,6,32.84,17.29,42.21,6.87,5.72,16.39,8.87,27.42,8.87a61.23,61.23,0,0,0,18.06-2.67,72.66,72.66,0,0,0,19.14-9.3l-7.19-14.76A49.2,49.2,0,0,1,1059.78,613.83Zm-5.5-67.41c11.31,0,13,12.28,13,19.92H1039.7C1040.14,556.52,1044.22,546.42,1054.28,546.42Z" transform="translate(-588.24 9.77)"/>
    <path class="cls-1" d="M892.84,546.65l0,83.29h26v-78.4c3.39-3.3,10.57-6.2,17.4-6.47a32.87,32.87,0,0,1,10.42,1.07L953.77,530c-2.79-1.39-9.43-3.08-17.15-3.08C925.45,527,908.3,530.22,892.84,546.65Z" transform="translate(-588.24 9.77)"/>
    <path class="cls-1" d="M1147.78,613.9c-10.59-.81-12.8-5.47-12.8-13.2V500.4l-25.53,4.36V599c0,22.34,12.14,31.92,32.45,31.92a63.1,63.1,0,0,0,9.74-1v-16S1149.24,614,1147.78,613.9Z" transform="translate(-588.24 9.77)"/>
    <path class="cls-1" d="M986.73,500.54l-26.1,4.19v94.75c0,21.22,12.4,31.27,33.19,31.27a55.57,55.57,0,0,0,9.7-1V614c-.29,0-2.21,0-3.68-.08-11-.38-13.11-6.41-13.11-13.4v-53.3h16.79V528.54H986.73Z" transform="translate(-588.24 9.77)"/>
    <path class="cls-1" d="M638.61,627.07c7.94-2.86,14.24-6.85,20.32-10.7l1.65-1a151.45,151.45,0,0,0,19.16-14.44c14.31-12.5,22.88-24.76,27.8-39.74,2-6.08,4.81-17.91,1.36-29a37.44,37.44,0,0,0-14.57-19.78c-.82-.69-9.71-7.82-26.49-7.82-15.34,0-32.16,5.93-50,17.63l-.57.35-.08.07c-.51.31-1,.63-1.59,1a13.79,13.79,0,0,1-1.38.9,103.74,103.74,0,0,0-10.37,8c-7.52,7.28-16.11,19.46-15.58,29.81A13.9,13.9,0,0,0,593.7,573,18,18,0,0,0,605,576.56c9.13,0,19.15-5,26-9.17.43-.31.86-.61,1.3-.88l3.58-2.38,1.17-.8c9.73-6.51,19.81-13.27,31.14-17.21a24.38,24.38,0,0,1,7.89-1.49,15.3,15.3,0,0,1,3.41.36,10.63,10.63,0,0,1,7.49,5.84c2.62,5.37,2,13.82-1.59,21.57-4.87,10.54-13.27,20.94-24.92,30.9a98.79,98.79,0,0,1-16.29,11.63l-.44.24a59,59,0,0,1-7.56,3.68l-.37.14c-.81.31-1.48.57-2.12.78-11.39,3.05-4.46-7-4.46-7a85.19,85.19,0,0,1,7.78-7.87c1.54-1.45,3.13-2.95,4.74-4.55l.35-.37c2-2,4.72-4.71,4.55-8.61-.24-5.19-5.49-8.44-10.45-8.58h-.36c-4.76,0-9.26,2.8-12.21,5.13a40.09,40.09,0,0,0-8.18,9.24c-3,4.8-9.41,17.08-3.2,26.87,2.49,3.92,6.64,5.91,12.35,5.91A42.15,42.15,0,0,0,638.61,627.07Z" transform="translate(-588.24 9.77)"/>
    <path class="cls-1" d="M1216.21,488a16.62,16.62,0,0,0-16.7,16.5,16.47,16.47,0,0,0,32.94.1,16.17,16.17,0,0,0-16.24-16.6Z" transform="translate(-588.24 9.77)"/>
    <polygon class="cls-1" points="614.74 642.17 640.65 642.17 640.65 538.99 614.74 543.21 614.74 642.17"/>
</svg>