<svg width="25" height="25" viewBox="0 0 25 25" fill="none" xmlns="http://www.w3.org/2000/svg">
<g clip-path="url(#clip0)">
<rect x="0.363281" y="0.5" width="24" height="24" rx="4" fill="#1BB378" fill-opacity="0.07"/>
<path d="M19.0737 7.70986C18.9808 7.61613 18.8702 7.54174 18.7483 7.49097C18.6264 7.4402 18.4957 7.41406 18.3637 7.41406C18.2317 7.41406 18.101 7.4402 17.9791 7.49097C17.8573 7.54174 17.7467 7.61613 17.6537 7.70986L10.2037 15.1699L7.07372 12.0299C6.9772 11.9366 6.86326 11.8633 6.7384 11.8141C6.61355 11.7649 6.48022 11.7408 6.34604 11.7431C6.21186 11.7454 6.07945 11.7741 5.95637 11.8276C5.83329 11.8811 5.72196 11.9583 5.62872 12.0549C5.53548 12.1514 5.46217 12.2653 5.41296 12.3902C5.36376 12.515 5.33963 12.6484 5.34195 12.7825C5.34427 12.9167 5.373 13.0491 5.42649 13.1722C5.47999 13.2953 5.5572 13.4066 5.65372 13.4999L9.49372 17.3399C9.58668 17.4336 9.69728 17.508 9.81914 17.5588C9.941 17.6095 10.0717 17.6357 10.2037 17.6357C10.3357 17.6357 10.4664 17.6095 10.5883 17.5588C10.7102 17.508 10.8208 17.4336 10.9137 17.3399L19.0737 9.17986C19.1752 9.08622 19.2562 8.97257 19.3116 8.84607C19.367 8.71957 19.3957 8.58296 19.3957 8.44486C19.3957 8.30676 19.367 8.17015 19.3116 8.04365C19.2562 7.91715 19.1752 7.8035 19.0737 7.70986Z" fill="#1BB378"/>
</g>
<defs>
<clipPath id="clip0">
<rect x="0.363281" y="0.5" width="24" height="24" rx="4" fill="white"/>
</clipPath>
</defs>
</svg>
